<?xml version="1.0" standalone="no"?><!DOCTYPE svg PUBLIC "-//W3C//DTD SVG 1.1//EN" "http://www.w3.org/Graphics/SVG/1.1/DTD/svg11.dtd"><svg width="100%" height="100%" viewBox="0 0 24 24" version="1.1" xmlns="http://www.w3.org/2000/svg" xmlns:xlink="http://www.w3.org/1999/xlink" xml:space="preserve" style="fill-rule:evenodd;clip-rule:evenodd;stroke-linejoin:round;stroke-miterlimit:1.41421;"><g><path d="M22.243,21.959l-0.954,-11.393c-0.006,0.002 -0.012,0.004 -0.018,0.006c-0.061,0.148 -0.125,0.438 -0.171,0.643c-0.175,0.782 -0.466,2.093 -1.71,2.093c-1.314,-0.003 -1.558,-0.753 -1.736,-1.301c-0.065,-0.199 -0.131,-0.403 -0.248,-0.612c-0.046,0.004 -0.099,0.009 -0.152,0.014c-0.162,0.014 -0.344,0.032 -0.543,0.032c-0.594,0 -1.054,-0.163 -1.405,-0.498c-0.541,-0.515 -0.953,-1.641 -1.396,-2.95c-0.041,-0.118 -0.083,-0.242 -0.122,-0.357c-0.565,-0.005 -1.252,-0.343 -1.979,-0.701c-0.426,-0.21 -1.07,-0.527 -1.291,-0.527c-0.155,0 -0.348,0.023 -0.552,0.046c-0.246,0.029 -0.5,0.059 -0.755,0.059c-0.176,0 -0.336,-0.016 -0.483,-0.046c-0.552,0.51 -1.4,0.51 -1.901,0.51c-0.064,0 -0.128,-0.001 -0.192,-0.001c-0.061,0 -0.122,-0.001 -0.182,-0.001c-0.137,0 -0.313,-0.012 -0.505,-0.053l-0.028,0.334c-1.445,-0.052 -3.18,0.026 -3.82,0.619c-1.095,1.017 -1.125,5.374 0.299,7.793c0.601,1.019 1.416,1.529 2.436,1.529c0.083,0 0.168,-0.004 0.254,-0.011l-0.4,4.773c0,0 -3.472,1.881 8.777,1.881c12.25,0 8.777,-1.881 8.777,-1.881ZM3.768,14.861c-1.146,-1.946 -0.951,-5.215 -0.583,-5.817c0.313,-0.155 1.389,-0.23 2.602,-0.198l-0.563,6.733c-0.667,0.142 -1.084,-0.087 -1.456,-0.718Z" style="fill:#fff;fill-rule:nonzero;"/><path d="M21.248,4.484c-0.433,-1.291 -0.988,-1.866 -1.798,-1.866c-0.393,0 -0.769,0.132 -1.09,0.381l-0.316,0.246l-0.088,-0.392c-0.277,-1.238 -1.357,-2.103 -2.627,-2.103c-0.765,0 -1.498,0.33 -2.011,0.906l-0.244,0.273l-0.171,-0.324c-0.468,-0.891 -1.382,-1.445 -2.385,-1.445c-1.345,0 -2.492,1.006 -2.669,2.339l-0.039,0.299l-0.289,-0.09c-0.197,-0.062 -0.366,-0.09 -0.53,-0.09c-0.477,0 -0.926,0.185 -1.263,0.523c-0.337,0.337 -0.523,0.785 -0.522,1.262c0,1.536 0.712,1.713 1.247,1.713c0.062,0 0.124,0.001 0.187,0.001c0.063,0 0.125,0.001 0.188,0.001c0.783,0 1.273,-0.08 1.465,-0.486l0.129,-0.272l0.247,0.173c0.116,0.081 0.293,0.121 0.542,0.121c0.205,0 0.434,-0.027 0.656,-0.053c0.22,-0.025 0.447,-0.052 0.651,-0.052c0.421,0 1.028,0.299 1.67,0.615c0.584,0.287 1.246,0.613 1.613,0.613c0.079,0 0.132,-0.015 0.159,-0.045l0.244,-0.275l0.171,0.326c0.088,0.168 0.203,0.506 0.348,0.934c0.296,0.873 0.744,2.193 1.175,2.603c0.187,0.178 0.445,0.261 0.813,0.261c0.159,0 0.32,-0.015 0.463,-0.028c0.126,-0.012 0.244,-0.023 0.349,-0.023c0.093,0 0.339,0 0.472,0.19c0.267,0.377 0.383,0.734 0.476,1.021c0.167,0.514 0.23,0.706 0.921,0.707c0.514,0 0.684,-0.588 0.87,-1.42c0.142,-0.64 0.29,-1.302 0.844,-1.302c0.027,0 0.098,0 0.186,-0.124c0.569,-0.791 0.329,-4.008 -0.044,-5.118Z" style="fill:#fff;fill-rule:nonzero;"/></g></svg>